<svg width="528" height="528" viewBox="0 0 528 528" fill="none" xmlns="http://www.w3.org/2000/svg">
<path d="M308.88 99.4397L260.26 132L330.66 237.16L455.181 153.78C467.721 145.42 471.02 128.26 462.66 115.94L422.62 56.3199C414.26 43.7799 397.1 40.48 384.78 48.84" stroke="#292D32" stroke-width="33" stroke-linecap="round" stroke-linejoin="round"/>
<path d="M267.825 142.543L162.716 212.94L219.034 297.028L324.143 226.63L267.825 142.543Z" stroke="#292D32" stroke-width="33" stroke-linecap="round" stroke-linejoin="round"/>
<path d="M128.26 349.8L215.16 291.72L165.88 218.24L78.9802 276.32C68.8602 283.14 66.2203 296.78 73.0403 306.9L97.9002 343.86C104.5 353.76 118.14 356.4 128.26 349.8Z" stroke="#292D32" stroke-width="33" stroke-linecap="round" stroke-linejoin="round"/>
<path d="M265.1 268.4L166.32 484" stroke="#292D32" stroke-width="33" stroke-linecap="round" stroke-linejoin="round"/>
<path d="M264 268.4L361.68 484" stroke="#292D32" stroke-width="33" stroke-linecap="round" stroke-linejoin="round"/>
</svg>
